<svg xmlns="http://www.w3.org/2000/svg" viewBox="0 0 50 52"><style>.st1{fill:#158EC6}</style><path d="M13.1 48.9c.2 0 4.9-.3 5-.3H24l4.4 1.4h15.1l2.3-2.6 2.4-.7H50V0H0v50h10.7c1.2-.6 2.3-1.1 2.4-1.1z" fill="#2f4546" id="Background_2_"/><g id="Icon"><path class="st1" d="M9.2 16.4V20H20V9.2h-3.6v4.7L9.6 7 7 9.6l6.9 6.8zM33.6 36.1l6.8 6.9 2.6-2.6-6.9-6.8h4.7V30H30v10.8h3.6zM40.8 20v-3.6h-4.7L43 9.6 40.4 7l-6.8 6.9V9.2H30V20zM9.6 43l6.8-6.9v4.7H20V30H9.2v3.6h4.7L7 40.4zM19.3 24.4l-.4.4c-.4.1-.4-.3-.6-.4l.4-.4c.3 0 .4.3.6.4zM31.7 28.5c-.3-.3-.6-.5-.9-.7-.2-.2-.4-.3-.3-.6 0-.2.2-.3.5-.3.4 0 .7-.1 1-.1.2.2.4.3.6.5.2.8-.2 1.1-.9 1.2zM17.7 26.9c.3.1.4.3.3.6-.1.3-.5.3-.8 0-.1-.1-.2-.1-.3-.2-.1-.1-.1-.2 0-.4 0-.2.2-.3.5-.2.1 0 .2.1.3.2zM22.1 20c0 .2-.2.3-.5.2v-.3c0-.2.2-.3.5-.2v.3zM29.5 30c0 .2-.2.3-.5.2v-.3c0-.2.2-.3.5-.2v.3zM11.7 24.5s.1.3 0 .3c-.2.1-.4.2-.5.1-.3-.1-.4-.3 0-.4.1-.1.3 0 .5 0zM8.7 26.1c-.1.1-.2.1-.3.1-.1 0-.2 0-.2-.1-.1-.3 0-.4.2-.5.2 0 .4 0 .6.2-.1 0-.2.2-.3.3zM21.1 29.4c-.2 0-.3-.2-.2-.5h.3c.2 0 .3.2.2.5h-.3zM24.4 32.1c0-.1-.1-.3 0-.3.3-.1.5-.1.5.1 0 .1.1.3 0 .3-.3.1-.5.1-.5-.1z"/></g></svg>